<svg width="1600" height="480" viewBox="0 0 1600 480" xmlns="http://www.w3.org/2000/svg">
  <!-- Raymond Ndagano - site header banner (1600x480). Text outlined to paths
       (DejaVu Sans / Sans Bold / Sans Mono), so rendering is font-independent.
       Regenerate from the editable banner.svg / generator if text changes. -->
  <defs>
    <linearGradient id="bg" x1="0%" y1="0%" x2="60%" y2="100%">
      <stop offset="0%"  stop-color="#125e60"/>
      <stop offset="50%" stop-color="#1a4e5c"/>
      <stop offset="100%" stop-color="#202c3c"/>
    </linearGradient>
    <radialGradient id="glow" cx="14%" cy="28%" r="60%">
      <stop offset="0%"  stop-color="#5ed6c4" stop-opacity="0.16"/>
      <stop offset="100%" stop-color="#5ed6c4" stop-opacity="0"/>
    </radialGradient>
  </defs>
  <rect width="1600" height="480" fill="url(#bg)"/>
  <rect width="1600" height="480" fill="url(#glow)"/>
  <g fill="#f0f5f6" transform="translate(120,215) scale(0.048828,-0.048828)"><path transform="translate(0,0)" d="M735 831Q856 831 908.5 876.0Q961 921 961 1024Q961 1126 908.5 1170.0Q856 1214 735 1214H573V831ZM573 565V0H188V1493H776Q1071 1493 1208.5 1394.0Q1346 1295 1346 1081Q1346 933 1274.5 838.0Q1203 743 1059 698Q1138 680 1200.5 616.5Q1263 553 1327 424L1536 0H1126L944 371Q889 483 832.5 524.0Q776 565 682 565Z"/><path transform="translate(1577,0)" d="M674 504Q562 504 505.5 466.0Q449 428 449 354Q449 286 494.5 247.5Q540 209 621 209Q722 209 791.0 281.5Q860 354 860 463V504ZM1221 639V0H860V166Q788 64 698.0 17.5Q608 -29 479 -29Q305 -29 196.5 72.5Q88 174 88 336Q88 533 223.5 625.0Q359 717 649 717H860V745Q860 830 793.0 869.5Q726 909 584 909Q469 909 370.0 886.0Q271 863 186 817V1090Q301 1118 417.0 1132.5Q533 1147 649 1147Q952 1147 1086.5 1027.5Q1221 908 1221 639Z"/><path transform="translate(2959,0)" d="M25 1120H383L684 360L940 1120H1298L827 -106Q756 -293 661.5 -367.5Q567 -442 412 -442H205V-207H317Q408 -207 449.5 -178.0Q491 -149 514 -74L524 -43Z"/><path transform="translate(4294,0)" d="M1210 934Q1278 1038 1371.5 1092.5Q1465 1147 1577 1147Q1770 1147 1871.0 1028.0Q1972 909 1972 682V0H1612V584Q1613 597 1613.5 611.0Q1614 625 1614 651Q1614 770 1579.0 823.5Q1544 877 1466 877Q1364 877 1308.5 793.0Q1253 709 1251 550V0H891V584Q891 770 859.0 823.5Q827 877 745 877Q642 877 586.0 792.5Q530 708 530 551V0H170V1120H530V956Q596 1051 681.5 1099.0Q767 1147 870 1147Q986 1147 1075.0 1091.0Q1164 1035 1210 934Z"/><path transform="translate(6428,0)" d="M705 891Q586 891 523.5 805.5Q461 720 461 559Q461 398 523.5 312.5Q586 227 705 227Q822 227 884.0 312.5Q946 398 946 559Q946 720 884.0 805.5Q822 891 705 891ZM705 1147Q994 1147 1156.5 991.0Q1319 835 1319 559Q1319 283 1156.5 127.0Q994 -29 705 -29Q415 -29 251.5 127.0Q88 283 88 559Q88 835 251.5 991.0Q415 1147 705 1147Z"/><path transform="translate(7835,0)" d="M1298 682V0H938V111V522Q938 667 931.5 722.0Q925 777 909 803Q888 838 852.0 857.5Q816 877 770 877Q658 877 594.0 790.5Q530 704 530 551V0H172V1120H530V956Q611 1054 702.0 1100.5Q793 1147 903 1147Q1097 1147 1197.5 1028.0Q1298 909 1298 682Z"/><path transform="translate(9293,0)" d="M934 956V1556H1294V0H934V162Q860 63 771.0 17.0Q682 -29 565 -29Q358 -29 225.0 135.5Q92 300 92 559Q92 818 225.0 982.5Q358 1147 565 1147Q681 1147 770.5 1100.5Q860 1054 934 956ZM698 231Q813 231 873.5 315.0Q934 399 934 559Q934 719 873.5 803.0Q813 887 698 887Q584 887 523.5 803.0Q463 719 463 559Q463 399 523.5 315.0Q584 231 698 231Z"/><path transform="translate(11472,0)" d="M188 1493H618L1161 469V1493H1526V0H1096L553 1024V0H188Z"/><path transform="translate(13186,0)" d="M934 956V1556H1294V0H934V162Q860 63 771.0 17.0Q682 -29 565 -29Q358 -29 225.0 135.5Q92 300 92 559Q92 818 225.0 982.5Q358 1147 565 1147Q681 1147 770.5 1100.5Q860 1054 934 956ZM698 231Q813 231 873.5 315.0Q934 399 934 559Q934 719 873.5 803.0Q813 887 698 887Q584 887 523.5 803.0Q463 719 463 559Q463 399 523.5 315.0Q584 231 698 231Z"/><path transform="translate(14652,0)" d="M674 504Q562 504 505.5 466.0Q449 428 449 354Q449 286 494.5 247.5Q540 209 621 209Q722 209 791.0 281.5Q860 354 860 463V504ZM1221 639V0H860V166Q788 64 698.0 17.5Q608 -29 479 -29Q305 -29 196.5 72.5Q88 174 88 336Q88 533 223.5 625.0Q359 717 649 717H860V745Q860 830 793.0 869.5Q726 909 584 909Q469 909 370.0 886.0Q271 863 186 817V1090Q301 1118 417.0 1132.5Q533 1147 649 1147Q952 1147 1086.5 1027.5Q1221 908 1221 639Z"/><path transform="translate(16034,0)" d="M934 190Q860 92 771.0 46.0Q682 0 565 0Q360 0 226.0 161.5Q92 323 92 573Q92 824 226.0 984.5Q360 1145 565 1145Q682 1145 771.0 1099.0Q860 1053 934 954V1120H1294V113Q1294 -157 1123.5 -299.5Q953 -442 629 -442Q524 -442 426.0 -426.0Q328 -410 229 -377V-98Q323 -152 413.0 -178.5Q503 -205 594 -205Q770 -205 852.0 -128.0Q934 -51 934 113ZM698 887Q587 887 525.0 805.0Q463 723 463 573Q463 419 523.0 339.5Q583 260 698 260Q810 260 872.0 342.0Q934 424 934 573Q934 723 872.0 805.0Q810 887 698 887Z"/><path transform="translate(17500,0)" d="M674 504Q562 504 505.5 466.0Q449 428 449 354Q449 286 494.5 247.5Q540 209 621 209Q722 209 791.0 281.5Q860 354 860 463V504ZM1221 639V0H860V166Q788 64 698.0 17.5Q608 -29 479 -29Q305 -29 196.5 72.5Q88 174 88 336Q88 533 223.5 625.0Q359 717 649 717H860V745Q860 830 793.0 869.5Q726 909 584 909Q469 909 370.0 886.0Q271 863 186 817V1090Q301 1118 417.0 1132.5Q533 1147 649 1147Q952 1147 1086.5 1027.5Q1221 908 1221 639Z"/><path transform="translate(18882,0)" d="M1298 682V0H938V111V522Q938 667 931.5 722.0Q925 777 909 803Q888 838 852.0 857.5Q816 877 770 877Q658 877 594.0 790.5Q530 704 530 551V0H172V1120H530V956Q611 1054 702.0 1100.5Q793 1147 903 1147Q1097 1147 1197.5 1028.0Q1298 909 1298 682Z"/><path transform="translate(20340,0)" d="M705 891Q586 891 523.5 805.5Q461 720 461 559Q461 398 523.5 312.5Q586 227 705 227Q822 227 884.0 312.5Q946 398 946 559Q946 720 884.0 805.5Q822 891 705 891ZM705 1147Q994 1147 1156.5 991.0Q1319 835 1319 559Q1319 283 1156.5 127.0Q994 -29 705 -29Q415 -29 251.5 127.0Q88 283 88 559Q88 835 251.5 991.0Q415 1147 705 1147Z"/></g>
  <g fill="#f0f5f6" transform="translate(124,285) scale(0.021484,-0.021484)"><path transform="translate(0,0)" d="M403 713V166H727Q890 166 968.5 233.5Q1047 301 1047 440Q1047 580 968.5 646.5Q890 713 727 713ZM403 1327V877H702Q850 877 922.5 932.5Q995 988 995 1102Q995 1215 922.5 1271.0Q850 1327 702 1327ZM201 1493H717Q948 1493 1073.0 1397.0Q1198 1301 1198 1124Q1198 987 1134.0 906.0Q1070 825 946 805Q1095 773 1177.5 671.5Q1260 570 1260 418Q1260 218 1124.0 109.0Q988 0 737 0H201Z"/><path transform="translate(1405,0)" d="M702 563Q479 563 393.0 512.0Q307 461 307 338Q307 240 371.5 182.5Q436 125 547 125Q700 125 792.5 233.5Q885 342 885 522V563ZM1069 639V0H885V170Q822 68 728.0 19.5Q634 -29 498 -29Q326 -29 224.5 67.5Q123 164 123 326Q123 515 249.5 611.0Q376 707 627 707H885V725Q885 852 801.5 921.5Q718 991 567 991Q471 991 380.0 968.0Q289 945 205 899V1069Q306 1108 401.0 1127.5Q496 1147 586 1147Q829 1147 949.0 1021.0Q1069 895 1069 639Z"/><path transform="translate(2660,0)" d="M999 1077V905Q921 948 842.5 969.5Q764 991 684 991Q505 991 406.0 877.5Q307 764 307 559Q307 354 406.0 240.5Q505 127 684 127Q764 127 842.5 148.5Q921 170 999 213V43Q922 7 839.5 -11.0Q757 -29 664 -29Q411 -29 262.0 130.0Q113 289 113 559Q113 833 263.5 990.0Q414 1147 676 1147Q761 1147 842.0 1129.5Q923 1112 999 1077Z"/><path transform="translate(3786,0)" d="M186 1556H371V637L920 1120H1155L561 596L1180 0H940L371 547V0H186Z"/><path transform="translate(4972,0)" d="M1151 606V516H305Q317 326 419.5 226.5Q522 127 705 127Q811 127 910.5 153.0Q1010 179 1108 231V57Q1009 15 905.0 -7.0Q801 -29 694 -29Q426 -29 269.5 127.0Q113 283 113 549Q113 824 261.5 985.5Q410 1147 662 1147Q888 1147 1019.5 1001.5Q1151 856 1151 606ZM967 660Q965 811 882.5 901.0Q800 991 664 991Q510 991 417.5 904.0Q325 817 311 659Z"/><path transform="translate(6232,0)" d="M1124 676V0H940V670Q940 829 878.0 908.0Q816 987 692 987Q543 987 457.0 892.0Q371 797 371 633V0H186V1120H371V946Q437 1047 526.5 1097.0Q616 1147 733 1147Q926 1147 1025.0 1027.5Q1124 908 1124 676Z"/><path transform="translate(7530,0)" d="M930 950V1556H1114V0H930V168Q872 68 783.5 19.5Q695 -29 571 -29Q368 -29 240.5 133.0Q113 295 113 559Q113 823 240.5 985.0Q368 1147 571 1147Q695 1147 783.5 1098.5Q872 1050 930 950ZM303 559Q303 356 386.5 240.5Q470 125 616 125Q762 125 846.0 240.5Q930 356 930 559Q930 762 846.0 877.5Q762 993 616 993Q470 993 386.5 877.5Q303 762 303 559Z"/><path transform="translate(9481,0)" d="M498 803Q407 722 364.5 641.5Q322 561 322 473Q322 327 428.0 230.0Q534 133 694 133Q789 133 872.0 164.5Q955 196 1028 260ZM639 915 1147 395Q1206 484 1239.0 585.5Q1272 687 1278 801H1464Q1452 669 1400.0 540.0Q1348 411 1255 285L1534 0H1282L1139 147Q1035 58 921.0 14.5Q807 -29 676 -29Q435 -29 282.0 108.5Q129 246 129 461Q129 589 196.0 701.5Q263 814 397 913Q349 976 324.0 1038.5Q299 1101 299 1161Q299 1323 410.0 1421.5Q521 1520 705 1520Q788 1520 870.5 1502.0Q953 1484 1038 1448V1266Q951 1313 872.0 1337.5Q793 1362 725 1362Q620 1362 554.5 1306.5Q489 1251 489 1163Q489 1112 518.5 1060.5Q548 1009 639 915Z"/><path transform="translate(11729,0)" d="M403 1327V766H657Q798 766 875.0 839.0Q952 912 952 1047Q952 1181 875.0 1254.0Q798 1327 657 1327ZM201 1493H657Q908 1493 1036.5 1379.5Q1165 1266 1165 1047Q1165 826 1036.5 713.0Q908 600 657 600H403V0H201Z"/><path transform="translate(12964,0)" d="M193 1556H377V0H193Z"/><path transform="translate(13533,0)" d="M702 563Q479 563 393.0 512.0Q307 461 307 338Q307 240 371.5 182.5Q436 125 547 125Q700 125 792.5 233.5Q885 342 885 522V563ZM1069 639V0H885V170Q822 68 728.0 19.5Q634 -29 498 -29Q326 -29 224.5 67.5Q123 164 123 326Q123 515 249.5 611.0Q376 707 627 707H885V725Q885 852 801.5 921.5Q718 991 567 991Q471 991 380.0 968.0Q289 945 205 899V1069Q306 1108 401.0 1127.5Q496 1147 586 1147Q829 1147 949.0 1021.0Q1069 895 1069 639Z"/><path transform="translate(14788,0)" d="M375 1438V1120H754V977H375V369Q375 232 412.5 193.0Q450 154 565 154H754V0H565Q352 0 271.0 79.5Q190 159 190 369V977H55V1120H190V1438Z"/><path transform="translate(15591,0)" d="M760 1556V1403H584Q485 1403 446.5 1363.0Q408 1323 408 1219V1120H711V977H408V0H223V977H47V1120H223V1198Q223 1385 310.0 1470.5Q397 1556 586 1556Z"/><path transform="translate(16312,0)" d="M627 991Q479 991 393.0 875.5Q307 760 307 559Q307 358 392.5 242.5Q478 127 627 127Q774 127 860.0 243.0Q946 359 946 559Q946 758 860.0 874.5Q774 991 627 991ZM627 1147Q867 1147 1004.0 991.0Q1141 835 1141 559Q1141 284 1004.0 127.5Q867 -29 627 -29Q386 -29 249.5 127.5Q113 284 113 559Q113 835 249.5 991.0Q386 1147 627 1147Z"/><path transform="translate(17565,0)" d="M842 948Q811 966 774.5 974.5Q738 983 694 983Q538 983 454.5 881.5Q371 780 371 590V0H186V1120H371V946Q429 1048 522.0 1097.5Q615 1147 748 1147Q767 1147 790.0 1144.5Q813 1142 841 1137Z"/><path transform="translate(18407,0)" d="M1065 905Q1134 1029 1230.0 1088.0Q1326 1147 1456 1147Q1631 1147 1726.0 1024.5Q1821 902 1821 676V0H1636V670Q1636 831 1579.0 909.0Q1522 987 1405 987Q1262 987 1179.0 892.0Q1096 797 1096 633V0H911V670Q911 832 854.0 909.5Q797 987 678 987Q537 987 454.0 891.5Q371 796 371 633V0H186V1120H371V946Q434 1049 522.0 1098.0Q610 1147 731 1147Q853 1147 938.5 1085.0Q1024 1023 1065 905Z"/><path transform="translate(21053,0)" d="M201 1493H1145V1323H403V881H1114V711H403V170H1163V0H201Z"/><path transform="translate(22347,0)" d="M1124 676V0H940V670Q940 829 878.0 908.0Q816 987 692 987Q543 987 457.0 892.0Q371 797 371 633V0H186V1120H371V946Q437 1047 526.5 1097.0Q616 1147 733 1147Q926 1147 1025.0 1027.5Q1124 908 1124 676Z"/><path transform="translate(23645,0)" d="M930 573Q930 773 847.5 883.0Q765 993 616 993Q468 993 385.5 883.0Q303 773 303 573Q303 374 385.5 264.0Q468 154 616 154Q765 154 847.5 264.0Q930 374 930 573ZM1114 139Q1114 -147 987.0 -286.5Q860 -426 598 -426Q501 -426 415.0 -411.5Q329 -397 248 -367V-188Q329 -232 408.0 -253.0Q487 -274 569 -274Q750 -274 840.0 -179.5Q930 -85 930 106V197Q873 98 784.0 49.0Q695 0 571 0Q365 0 239.0 157.0Q113 314 113 573Q113 833 239.0 990.0Q365 1147 571 1147Q695 1147 784.0 1098.0Q873 1049 930 950V1120H1114Z"/><path transform="translate(24945,0)" d="M193 1120H377V0H193ZM193 1556H377V1323H193Z"/><path transform="translate(25514,0)" d="M1124 676V0H940V670Q940 829 878.0 908.0Q816 987 692 987Q543 987 457.0 892.0Q371 797 371 633V0H186V1120H371V946Q437 1047 526.5 1097.0Q616 1147 733 1147Q926 1147 1025.0 1027.5Q1124 908 1124 676Z"/><path transform="translate(26812,0)" d="M1151 606V516H305Q317 326 419.5 226.5Q522 127 705 127Q811 127 910.5 153.0Q1010 179 1108 231V57Q1009 15 905.0 -7.0Q801 -29 694 -29Q426 -29 269.5 127.0Q113 283 113 549Q113 824 261.5 985.5Q410 1147 662 1147Q888 1147 1019.5 1001.5Q1151 856 1151 606ZM967 660Q965 811 882.5 901.0Q800 991 664 991Q510 991 417.5 904.0Q325 817 311 659Z"/><path transform="translate(28072,0)" d="M1151 606V516H305Q317 326 419.5 226.5Q522 127 705 127Q811 127 910.5 153.0Q1010 179 1108 231V57Q1009 15 905.0 -7.0Q801 -29 694 -29Q426 -29 269.5 127.0Q113 283 113 549Q113 824 261.5 985.5Q410 1147 662 1147Q888 1147 1019.5 1001.5Q1151 856 1151 606ZM967 660Q965 811 882.5 901.0Q800 991 664 991Q510 991 417.5 904.0Q325 817 311 659Z"/><path transform="translate(29332,0)" d="M842 948Q811 966 774.5 974.5Q738 983 694 983Q538 983 454.5 881.5Q371 780 371 590V0H186V1120H371V946Q429 1048 522.0 1097.5Q615 1147 748 1147Q767 1147 790.0 1144.5Q813 1142 841 1137Z"/></g>
  <g fill="#96b2b8" transform="translate(124,340) scale(0.019531,-0.019531)"><path transform="translate(0,0)" d="M201 1493H403V104Q403 -166 300.5 -288.0Q198 -410 -29 -410H-106V-240H-43Q91 -240 146.0 -165.0Q201 -90 201 104Z"/><path transform="translate(604,0)" d="M702 563Q479 563 393.0 512.0Q307 461 307 338Q307 240 371.5 182.5Q436 125 547 125Q700 125 792.5 233.5Q885 342 885 522V563ZM1069 639V0H885V170Q822 68 728.0 19.5Q634 -29 498 -29Q326 -29 224.5 67.5Q123 164 123 326Q123 515 249.5 611.0Q376 707 627 707H885V725Q885 852 801.5 921.5Q718 991 567 991Q471 991 380.0 968.0Q289 945 205 899V1069Q306 1108 401.0 1127.5Q496 1147 586 1147Q829 1147 949.0 1021.0Q1069 895 1069 639Z"/><path transform="translate(1859,0)" d="M61 1120H256L606 180L956 1120H1151L731 0H481Z"/><path transform="translate(3071,0)" d="M702 563Q479 563 393.0 512.0Q307 461 307 338Q307 240 371.5 182.5Q436 125 547 125Q700 125 792.5 233.5Q885 342 885 522V563ZM1069 639V0H885V170Q822 68 728.0 19.5Q634 -29 498 -29Q326 -29 224.5 67.5Q123 164 123 326Q123 515 249.5 611.0Q376 707 627 707H885V725Q885 852 801.5 921.5Q718 991 567 991Q471 991 380.0 968.0Q289 945 205 899V1069Q306 1108 401.0 1127.5Q496 1147 586 1147Q829 1147 949.0 1021.0Q1069 895 1069 639Z"/><path transform="translate(5628,0)" d="M219 838H430V584H219Z"/><path transform="translate(7581,0)" d="M1096 1444V1247Q981 1302 879.0 1329.0Q777 1356 682 1356Q517 1356 427.5 1292.0Q338 1228 338 1110Q338 1011 397.5 960.5Q457 910 623 879L745 854Q971 811 1078.5 702.5Q1186 594 1186 412Q1186 195 1040.5 83.0Q895 -29 614 -29Q508 -29 388.5 -5.0Q269 19 141 66V274Q264 205 382.0 170.0Q500 135 614 135Q787 135 881.0 203.0Q975 271 975 397Q975 507 907.5 569.0Q840 631 686 662L563 686Q337 731 236.0 827.0Q135 923 135 1094Q135 1292 274.5 1406.0Q414 1520 659 1520Q764 1520 873.0 1501.0Q982 1482 1096 1444Z"/><path transform="translate(8881,0)" d="M371 168V-426H186V1120H371V950Q429 1050 517.5 1098.5Q606 1147 729 1147Q933 1147 1060.5 985.0Q1188 823 1188 559Q1188 295 1060.5 133.0Q933 -29 729 -29Q606 -29 517.5 19.5Q429 68 371 168ZM997 559Q997 762 913.5 877.5Q830 993 684 993Q538 993 454.5 877.5Q371 762 371 559Q371 356 454.5 240.5Q538 125 684 125Q830 125 913.5 240.5Q997 356 997 559Z"/><path transform="translate(10181,0)" d="M842 948Q811 966 774.5 974.5Q738 983 694 983Q538 983 454.5 881.5Q371 780 371 590V0H186V1120H371V946Q429 1048 522.0 1097.5Q615 1147 748 1147Q767 1147 790.0 1144.5Q813 1142 841 1137Z"/><path transform="translate(11023,0)" d="M193 1120H377V0H193ZM193 1556H377V1323H193Z"/><path transform="translate(11592,0)" d="M1124 676V0H940V670Q940 829 878.0 908.0Q816 987 692 987Q543 987 457.0 892.0Q371 797 371 633V0H186V1120H371V946Q437 1047 526.5 1097.0Q616 1147 733 1147Q926 1147 1025.0 1027.5Q1124 908 1124 676Z"/><path transform="translate(12890,0)" d="M930 573Q930 773 847.5 883.0Q765 993 616 993Q468 993 385.5 883.0Q303 773 303 573Q303 374 385.5 264.0Q468 154 616 154Q765 154 847.5 264.0Q930 374 930 573ZM1114 139Q1114 -147 987.0 -286.5Q860 -426 598 -426Q501 -426 415.0 -411.5Q329 -397 248 -367V-188Q329 -232 408.0 -253.0Q487 -274 569 -274Q750 -274 840.0 -179.5Q930 -85 930 106V197Q873 98 784.0 49.0Q695 0 571 0Q365 0 239.0 157.0Q113 314 113 573Q113 833 239.0 990.0Q365 1147 571 1147Q695 1147 784.0 1098.0Q873 1049 930 950V1120H1114Z"/><path transform="translate(14841,0)" d="M403 713V166H727Q890 166 968.5 233.5Q1047 301 1047 440Q1047 580 968.5 646.5Q890 713 727 713ZM403 1327V877H702Q850 877 922.5 932.5Q995 988 995 1102Q995 1215 922.5 1271.0Q850 1327 702 1327ZM201 1493H717Q948 1493 1073.0 1397.0Q1198 1301 1198 1124Q1198 987 1134.0 906.0Q1070 825 946 805Q1095 773 1177.5 671.5Q1260 570 1260 418Q1260 218 1124.0 109.0Q988 0 737 0H201Z"/><path transform="translate(16246,0)" d="M627 991Q479 991 393.0 875.5Q307 760 307 559Q307 358 392.5 242.5Q478 127 627 127Q774 127 860.0 243.0Q946 359 946 559Q946 758 860.0 874.5Q774 991 627 991ZM627 1147Q867 1147 1004.0 991.0Q1141 835 1141 559Q1141 284 1004.0 127.5Q867 -29 627 -29Q386 -29 249.5 127.5Q113 284 113 559Q113 835 249.5 991.0Q386 1147 627 1147Z"/><path transform="translate(17499,0)" d="M627 991Q479 991 393.0 875.5Q307 760 307 559Q307 358 392.5 242.5Q478 127 627 127Q774 127 860.0 243.0Q946 359 946 559Q946 758 860.0 874.5Q774 991 627 991ZM627 1147Q867 1147 1004.0 991.0Q1141 835 1141 559Q1141 284 1004.0 127.5Q867 -29 627 -29Q386 -29 249.5 127.5Q113 284 113 559Q113 835 249.5 991.0Q386 1147 627 1147Z"/><path transform="translate(18752,0)" d="M375 1438V1120H754V977H375V369Q375 232 412.5 193.0Q450 154 565 154H754V0H565Q352 0 271.0 79.5Q190 159 190 369V977H55V1120H190V1438Z"/><path transform="translate(20857,0)" d="M219 838H430V584H219Z"/><path transform="translate(22810,0)" d="M201 1493H403V862L1073 1493H1333L592 797L1386 0H1120L403 719V0H201Z"/><path transform="translate(24153,0)" d="M174 442V1120H358V449Q358 290 420.0 210.5Q482 131 606 131Q755 131 841.5 226.0Q928 321 928 485V1120H1112V0H928V172Q861 70 772.5 20.5Q684 -29 567 -29Q374 -29 274.0 91.0Q174 211 174 442ZM637 1147Z"/><path transform="translate(25451,0)" d="M997 559Q997 762 913.5 877.5Q830 993 684 993Q538 993 454.5 877.5Q371 762 371 559Q371 356 454.5 240.5Q538 125 684 125Q830 125 913.5 240.5Q997 356 997 559ZM371 950Q429 1050 517.5 1098.5Q606 1147 729 1147Q933 1147 1060.5 985.0Q1188 823 1188 559Q1188 295 1060.5 133.0Q933 -29 729 -29Q606 -29 517.5 19.5Q429 68 371 168V0H186V1556H371Z"/><path transform="translate(26751,0)" d="M1151 606V516H305Q317 326 419.5 226.5Q522 127 705 127Q811 127 910.5 153.0Q1010 179 1108 231V57Q1009 15 905.0 -7.0Q801 -29 694 -29Q426 -29 269.5 127.0Q113 283 113 549Q113 824 261.5 985.5Q410 1147 662 1147Q888 1147 1019.5 1001.5Q1151 856 1151 606ZM967 660Q965 811 882.5 901.0Q800 991 664 991Q510 991 417.5 904.0Q325 817 311 659Z"/><path transform="translate(28011,0)" d="M842 948Q811 966 774.5 974.5Q738 983 694 983Q538 983 454.5 881.5Q371 780 371 590V0H186V1120H371V946Q429 1048 522.0 1097.5Q615 1147 748 1147Q767 1147 790.0 1144.5Q813 1142 841 1137Z"/><path transform="translate(28853,0)" d="M1124 676V0H940V670Q940 829 878.0 908.0Q816 987 692 987Q543 987 457.0 892.0Q371 797 371 633V0H186V1120H371V946Q437 1047 526.5 1097.0Q616 1147 733 1147Q926 1147 1025.0 1027.5Q1124 908 1124 676Z"/><path transform="translate(30151,0)" d="M1151 606V516H305Q317 326 419.5 226.5Q522 127 705 127Q811 127 910.5 153.0Q1010 179 1108 231V57Q1009 15 905.0 -7.0Q801 -29 694 -29Q426 -29 269.5 127.0Q113 283 113 549Q113 824 261.5 985.5Q410 1147 662 1147Q888 1147 1019.5 1001.5Q1151 856 1151 606ZM967 660Q965 811 882.5 901.0Q800 991 664 991Q510 991 417.5 904.0Q325 817 311 659Z"/><path transform="translate(31411,0)" d="M375 1438V1120H754V977H375V369Q375 232 412.5 193.0Q450 154 565 154H754V0H565Q352 0 271.0 79.5Q190 159 190 369V977H55V1120H190V1438Z"/><path transform="translate(32214,0)" d="M1151 606V516H305Q317 326 419.5 226.5Q522 127 705 127Q811 127 910.5 153.0Q1010 179 1108 231V57Q1009 15 905.0 -7.0Q801 -29 694 -29Q426 -29 269.5 127.0Q113 283 113 549Q113 824 261.5 985.5Q410 1147 662 1147Q888 1147 1019.5 1001.5Q1151 856 1151 606ZM967 660Q965 811 882.5 901.0Q800 991 664 991Q510 991 417.5 904.0Q325 817 311 659Z"/><path transform="translate(33474,0)" d="M907 1087V913Q829 953 745.0 973.0Q661 993 571 993Q434 993 365.5 951.0Q297 909 297 825Q297 761 346.0 724.5Q395 688 543 655L606 641Q802 599 884.5 522.5Q967 446 967 309Q967 153 843.5 62.0Q720 -29 504 -29Q414 -29 316.5 -11.5Q219 6 111 41V231Q213 178 312.0 151.5Q411 125 508 125Q638 125 708.0 169.5Q778 214 778 295Q778 370 727.5 410.0Q677 450 506 487L442 502Q271 538 195.0 612.5Q119 687 119 817Q119 975 231.0 1061.0Q343 1147 549 1147Q651 1147 741.0 1132.0Q831 1117 907 1087Z"/><path transform="translate(35843,0)" d="M219 838H430V584H219Z"/><path transform="translate(37796,0)" d="M403 1327V166H647Q956 166 1099.5 306.0Q1243 446 1243 748Q1243 1048 1099.5 1187.5Q956 1327 647 1327ZM201 1493H616Q1050 1493 1253.0 1312.5Q1456 1132 1456 748Q1456 362 1252.0 181.0Q1048 0 616 0H201Z"/><path transform="translate(39373,0)" d="M1151 606V516H305Q317 326 419.5 226.5Q522 127 705 127Q811 127 910.5 153.0Q1010 179 1108 231V57Q1009 15 905.0 -7.0Q801 -29 694 -29Q426 -29 269.5 127.0Q113 283 113 549Q113 824 261.5 985.5Q410 1147 662 1147Q888 1147 1019.5 1001.5Q1151 856 1151 606ZM967 660Q965 811 882.5 901.0Q800 991 664 991Q510 991 417.5 904.0Q325 817 311 659Z"/><path transform="translate(40633,0)" d="M61 1120H256L606 180L956 1120H1151L731 0H481Z"/><path transform="translate(41845,0)" d="M807 1356Q587 1356 457.5 1192.0Q328 1028 328 745Q328 463 457.5 299.0Q587 135 807 135Q1027 135 1155.5 299.0Q1284 463 1284 745Q1284 1028 1155.5 1192.0Q1027 1356 807 1356ZM807 1520Q1121 1520 1309.0 1309.5Q1497 1099 1497 745Q1497 392 1309.0 181.5Q1121 -29 807 -29Q492 -29 303.5 181.0Q115 391 115 745Q115 1099 303.5 1309.5Q492 1520 807 1520Z"/><path transform="translate(43457,0)" d="M371 168V-426H186V1120H371V950Q429 1050 517.5 1098.5Q606 1147 729 1147Q933 1147 1060.5 985.0Q1188 823 1188 559Q1188 295 1060.5 133.0Q933 -29 729 -29Q606 -29 517.5 19.5Q429 68 371 168ZM997 559Q997 762 913.5 877.5Q830 993 684 993Q538 993 454.5 877.5Q371 762 371 559Q371 356 454.5 240.5Q538 125 684 125Q830 125 913.5 240.5Q997 356 997 559Z"/><path transform="translate(44757,0)" d="M907 1087V913Q829 953 745.0 973.0Q661 993 571 993Q434 993 365.5 951.0Q297 909 297 825Q297 761 346.0 724.5Q395 688 543 655L606 641Q802 599 884.5 522.5Q967 446 967 309Q967 153 843.5 62.0Q720 -29 504 -29Q414 -29 316.5 -11.5Q219 6 111 41V231Q213 178 312.0 151.5Q411 125 508 125Q638 125 708.0 169.5Q778 214 778 295Q778 370 727.5 410.0Q677 450 506 487L442 502Q271 538 195.0 612.5Q119 687 119 817Q119 975 231.0 1061.0Q343 1147 549 1147Q651 1147 741.0 1132.0Q831 1117 907 1087Z"/><path transform="translate(46475,0)" d="M520 1493H690L170 -190H0Z"/><path transform="translate(47816,0)" d="M1219 213V614H889V780H1419V139Q1302 56 1161.0 13.5Q1020 -29 860 -29Q510 -29 312.5 175.5Q115 380 115 745Q115 1111 312.5 1315.5Q510 1520 860 1520Q1006 1520 1137.5 1484.0Q1269 1448 1380 1378V1163Q1268 1258 1142.0 1306.0Q1016 1354 877 1354Q603 1354 465.5 1201.0Q328 1048 328 745Q328 443 465.5 290.0Q603 137 877 137Q984 137 1068.0 155.5Q1152 174 1219 213Z"/><path transform="translate(49403,0)" d="M193 1120H377V0H193ZM193 1556H377V1323H193Z"/><path transform="translate(49972,0)" d="M375 1438V1120H754V977H375V369Q375 232 412.5 193.0Q450 154 565 154H754V0H565Q352 0 271.0 79.5Q190 159 190 369V977H55V1120H190V1438Z"/><path transform="translate(50775,0)" d="M807 1356Q587 1356 457.5 1192.0Q328 1028 328 745Q328 463 457.5 299.0Q587 135 807 135Q1027 135 1155.5 299.0Q1284 463 1284 745Q1284 1028 1155.5 1192.0Q1027 1356 807 1356ZM807 1520Q1121 1520 1309.0 1309.5Q1497 1099 1497 745Q1497 392 1309.0 181.5Q1121 -29 807 -29Q492 -29 303.5 181.0Q115 391 115 745Q115 1099 303.5 1309.5Q492 1520 807 1520Z"/><path transform="translate(52387,0)" d="M371 168V-426H186V1120H371V950Q429 1050 517.5 1098.5Q606 1147 729 1147Q933 1147 1060.5 985.0Q1188 823 1188 559Q1188 295 1060.5 133.0Q933 -29 729 -29Q606 -29 517.5 19.5Q429 68 371 168ZM997 559Q997 762 913.5 877.5Q830 993 684 993Q538 993 454.5 877.5Q371 762 371 559Q371 356 454.5 240.5Q538 125 684 125Q830 125 913.5 240.5Q997 356 997 559Z"/><path transform="translate(53687,0)" d="M907 1087V913Q829 953 745.0 973.0Q661 993 571 993Q434 993 365.5 951.0Q297 909 297 825Q297 761 346.0 724.5Q395 688 543 655L606 641Q802 599 884.5 522.5Q967 446 967 309Q967 153 843.5 62.0Q720 -29 504 -29Q414 -29 316.5 -11.5Q219 6 111 41V231Q213 178 312.0 151.5Q411 125 508 125Q638 125 708.0 169.5Q778 214 778 295Q778 370 727.5 410.0Q677 450 506 487L442 502Q271 538 195.0 612.5Q119 687 119 817Q119 975 231.0 1061.0Q343 1147 549 1147Q651 1147 741.0 1132.0Q831 1117 907 1087Z"/></g>
  <g fill="#5ed6c4" transform="translate(124,420) scale(0.017578,-0.017578)"><path transform="translate(0,0)" d="M215 1493H418V170H1139V0H215Z"/><path transform="translate(1233,0)" d="M1112 606V516H315V510Q315 327 410.5 227.0Q506 127 680 127Q768 127 864.0 155.0Q960 183 1069 240V57Q964 14 866.5 -7.5Q769 -29 678 -29Q417 -29 270.0 127.5Q123 284 123 559Q123 827 267.0 987.0Q411 1147 651 1147Q865 1147 988.5 1002.0Q1112 857 1112 606ZM928 660Q924 822 851.5 906.5Q779 991 643 991Q510 991 424.0 903.0Q338 815 322 659Z"/><path transform="translate(2466,0)" d="M702 563H641Q480 563 398.5 506.5Q317 450 317 338Q317 237 378.0 181.0Q439 125 547 125Q699 125 786.0 230.5Q873 336 874 522V563ZM1059 639V0H874V166Q815 66 725.5 18.5Q636 -29 508 -29Q337 -29 235.0 67.5Q133 164 133 326Q133 513 258.5 610.0Q384 707 627 707H874V736Q873 870 806.0 930.5Q739 991 592 991Q498 991 402.0 964.0Q306 937 215 885V1069Q317 1108 410.5 1127.5Q504 1147 592 1147Q731 1147 829.5 1106.0Q928 1065 989 983Q1027 933 1043.0 859.5Q1059 786 1059 639Z"/><path transform="translate(3699,0)" d="M1155 889Q1096 935 1035.0 956.0Q974 977 901 977Q729 977 638.0 869.0Q547 761 547 557V0H362V1120H547V901Q593 1020 688.5 1083.5Q784 1147 915 1147Q983 1147 1042.0 1130.0Q1101 1113 1155 1077Z"/><path transform="translate(4932,0)" d="M1051 694V0H866V694Q866 845 813.0 916.0Q760 987 647 987Q518 987 448.5 895.5Q379 804 379 633V0H195V1120H379V952Q428 1048 512.0 1097.5Q596 1147 711 1147Q882 1147 966.5 1034.5Q1051 922 1051 694Z"/><path transform="translate(6165,0)" d="M489 305H741V0H489Z"/><path transform="translate(9864,0)" d="M369 713V166H608Q784 166 859.0 227.5Q934 289 934 430Q934 576 855.0 644.5Q776 713 608 713ZM369 1327V877H604Q750 877 815.5 933.0Q881 989 881 1114Q881 1227 816.5 1277.0Q752 1327 604 1327ZM166 1493H608Q837 1493 961.0 1394.0Q1085 1295 1085 1114Q1085 977 1019.5 898.0Q954 819 823 799Q970 777 1053.5 673.5Q1137 570 1137 410Q1137 207 1004.0 103.5Q871 0 608 0H166Z"/><path transform="translate(11097,0)" d="M195 424V1118H379V424Q379 273 432.5 202.0Q486 131 598 131Q728 131 797.0 222.5Q866 314 866 485V1118H1051V0H866V168Q817 71 732.5 21.0Q648 -29 535 -29Q363 -29 279.0 83.5Q195 196 195 424Z"/><path transform="translate(12330,0)" d="M256 1120H727V143H1092V0H178V143H543V977H256ZM543 1556H727V1323H543Z"/><path transform="translate(13563,0)" d="M639 406Q639 282 684.5 219.0Q730 156 819 156H1034V0H801Q636 0 545.5 106.0Q455 212 455 406V1423H160V1567H639Z"/><path transform="translate(14796,0)" d="M858 977V1556H1042V0H858V141Q812 58 735.5 14.5Q659 -29 559 -29Q356 -29 239.5 128.5Q123 286 123 563Q123 836 240.0 991.5Q357 1147 559 1147Q660 1147 737.0 1103.5Q814 1060 858 977ZM317 559Q317 345 385.0 236.0Q453 127 586 127Q719 127 788.5 237.0Q858 347 858 559Q858 772 788.5 881.5Q719 991 586 991Q453 991 385.0 882.0Q317 773 317 559Z"/><path transform="translate(16029,0)" d="M489 305H741V0H489Z"/><path transform="translate(19728,0)" d="M399 1327V766H633Q773 766 851.5 840.0Q930 914 930 1047Q930 1180 852.0 1253.5Q774 1327 633 1327ZM197 1493H633Q883 1493 1012.0 1379.5Q1141 1266 1141 1047Q1141 826 1012.5 713.0Q884 600 633 600H399V0H197Z"/><path transform="translate(20961,0)" d="M195 424V1118H379V424Q379 273 432.5 202.0Q486 131 598 131Q728 131 797.0 222.5Q866 314 866 485V1118H1051V0H866V168Q817 71 732.5 21.0Q648 -29 535 -29Q363 -29 279.0 83.5Q195 196 195 424Z"/><path transform="translate(22194,0)" d="M918 559Q918 773 850.0 882.0Q782 991 649 991Q515 991 446.0 881.5Q377 772 377 559Q377 347 446.0 237.0Q515 127 649 127Q782 127 850.0 236.0Q918 345 918 559ZM377 977Q421 1059 498.5 1103.0Q576 1147 678 1147Q880 1147 996.0 991.5Q1112 836 1112 563Q1112 286 995.5 128.5Q879 -29 676 -29Q576 -29 499.5 14.5Q423 58 377 141V0H193V1556H377Z"/><path transform="translate(23427,0)" d="M639 406Q639 282 684.5 219.0Q730 156 819 156H1034V0H801Q636 0 545.5 106.0Q455 212 455 406V1423H160V1567H639Z"/><path transform="translate(24660,0)" d="M256 1120H727V143H1092V0H178V143H543V977H256ZM543 1556H727V1323H543Z"/><path transform="translate(25893,0)" d="M973 1081V901Q894 947 814.0 970.0Q734 993 651 993Q526 993 464.5 952.5Q403 912 403 829Q403 754 449.0 717.0Q495 680 678 645L752 631Q889 605 959.5 527.0Q1030 449 1030 324Q1030 158 912.0 64.5Q794 -29 584 -29Q501 -29 410.0 -11.5Q319 6 213 41V231Q316 178 410.0 151.5Q504 125 588 125Q710 125 777.0 174.5Q844 224 844 313Q844 441 599 490L591 492L522 506Q363 537 290.0 610.5Q217 684 217 811Q217 972 326.0 1059.5Q435 1147 637 1147Q727 1147 810.0 1130.5Q893 1114 973 1081Z"/><path transform="translate(27126,0)" d="M1051 694V0H866V694Q866 845 813.0 916.0Q760 987 647 987Q518 987 448.5 895.5Q379 804 379 633V0H195V1556H379V952Q428 1048 512.0 1097.5Q596 1147 711 1147Q882 1147 966.5 1034.5Q1051 922 1051 694Z"/><path transform="translate(28359,0)" d="M489 305H741V0H489Z"/></g>
</svg>
